{"asset":{"generator":"3D Builder","version":"2.0"},"scene":0,"scenes":[{"nodes":[0]}],"nodes":[{"mesh":0,"matrix":[1,0,0,0,0,-1.1920928955078125E-7,-0.99999988079071045,0,0,0.99999988079071045,-1.1920928955078125E-7,0,0,0,0,1]}],"meshes":[{"primitives":[{"attributes":{"POSITION":0,"TEXCOORD_0":1},"mode":4,"indices":2,"material":0}]}],"materials":[{"pbrMetallicRoughness":{"baseColorFactor":[1,1,1,1],"metallicFactor":0,"roughnessFactor":1,"baseColorTexture":{"index":0,"texCoord":0}},"alphaMode":"OPAQUE"}],"textures":[{"source":0,"sampler":0}],"images":[{"uri":"mitochondrion.png"}],"samplers":[{"magFilter":9729,"wrapS":10497,"wrapT":10497}],"accessors":[{"bufferView":0,"byteOffset":0,"count":66,"componentType":5126,"type":"VEC3","min":[0,0,0],"max":[0.036322001367807388,0.055880006402730942,0.0056134001351892948]},{"bufferView":1,"byteOffset":0,"count":66,"componentType":5126,"type":"VEC2"},{"bufferView":2,"byteOffset":0,"count":384,"componentType":5125,"type":"SCALAR"}],"bufferViews":[{"buffer":0,"byteOffset":0,"byteLength":792,"byteStride":12,"target":34962},{"buffer":0,"byteOffset":792,"byteLength":528,"byteStride":8,"target":34962},{"buffer":0,"byteOffset":1320,"byteLength":1536,"target":34963}],"buffers":[{"byteLength":2856,"uri":"mitochondrion.bin"}]}