{"asset":{"generator":"3D Builder","version":"2.0"},"scene":0,"scenes":[{"nodes":[0]}],"nodes":[{"mesh":0,"matrix":[1,0,0,0,0,-1.1920928955078125E-7,-0.99999988079071045,0,0,0.99999988079071045,-1.1920928955078125E-7,0,0,0,0,1]}],"meshes":[{"primitives":[{"attributes":{"POSITION":0,"TEXCOORD_0":1},"mode":4,"indices":2,"material":0}]}],"materials":[{"pbrMetallicRoughness":{"baseColorFactor":[1,1,1,1],"metallicFactor":0,"roughnessFactor":1,"baseColorTexture":{"index":0,"texCoord":0}},"alphaMode":"OPAQUE"}],"textures":[{"source":0,"sampler":0}],"images":[{"uri":"vacuole.png"}],"samplers":[{"magFilter":9729,"wrapS":10497,"wrapT":10497}],"accessors":[{"bufferView":0,"byteOffset":0,"count":120,"componentType":5126,"type":"VEC3","min":[0,0,0],"max":[0.19481800496578217,0.16078199446201324,0.01950719952583313]},{"bufferView":1,"byteOffset":0,"count":120,"componentType":5126,"type":"VEC2"},{"bufferView":2,"byteOffset":0,"count":708,"componentType":5125,"type":"SCALAR"}],"bufferViews":[{"buffer":0,"byteOffset":0,"byteLength":1440,"byteStride":12,"target":34962},{"buffer":0,"byteOffset":1440,"byteLength":960,"byteStride":8,"target":34962},{"buffer":0,"byteOffset":2400,"byteLength":2832,"target":34963}],"buffers":[{"byteLength":5232,"uri":"vacuole.bin"}]}